<svg width="225" height="44" viewBox="0 0 225 44" fill="none" xmlns="http://www.w3.org/2000/svg">
<g clip-path="url(#clip0_903_2766)">
<path d="M20 14H4C2.9 14 2.01 14.9 2.01 16L2 28C2 29.1 2.9 30 4 30H20C21.1 30 22 29.1 22 28V16C22 14.9 21.1 14 20 14ZM20 18L12 23L4 18V16L12 21L20 16V18Z" fill="#636C79"/>
</g>
<path d="M36.744 21.928H41.784V23.118H36.744V21.928ZM36.87 26.282H42.582V27.5H35.47V17.7H42.386V18.918H36.87V26.282ZM53.9349 20.01C54.5322 20.01 55.0596 20.1267 55.5169 20.36C55.9742 20.5933 56.3289 20.948 56.5809 21.424C56.8422 21.9 56.9729 22.502 56.9729 23.23V27.5H55.6289V23.384C55.6289 22.6653 55.4609 22.124 55.1249 21.76C54.7889 21.396 54.3176 21.214 53.7109 21.214C53.2629 21.214 52.8709 21.3073 52.5349 21.494C52.1989 21.6807 51.9376 21.956 51.7509 22.32C51.5736 22.684 51.4849 23.1367 51.4849 23.678V27.5H50.1409V23.384C50.1409 22.6653 49.9729 22.124 49.6369 21.76C49.3102 21.396 48.8389 21.214 48.2229 21.214C47.7842 21.214 47.3969 21.3073 47.0609 21.494C46.7249 21.6807 46.4636 21.956 46.2769 22.32C46.0902 22.684 45.9969 23.1367 45.9969 23.678V27.5H44.6529V20.08H45.9409V22.054L45.7309 21.55C45.9642 21.0647 46.3236 20.6867 46.8089 20.416C47.2942 20.1453 47.8589 20.01 48.5029 20.01C49.2122 20.01 49.8236 20.1873 50.3369 20.542C50.8502 20.8873 51.1862 21.4147 51.3449 22.124L50.7989 21.9C51.0229 21.3307 51.4149 20.8733 51.9749 20.528C52.5349 20.1827 53.1882 20.01 53.9349 20.01ZM64.0519 27.5V25.932L63.9819 25.638V22.964C63.9819 22.3947 63.8139 21.956 63.4779 21.648C63.1512 21.3307 62.6565 21.172 61.9939 21.172C61.5552 21.172 61.1259 21.2467 60.7059 21.396C60.2859 21.536 59.9312 21.7273 59.6419 21.97L59.0819 20.962C59.4645 20.654 59.9219 20.4207 60.4539 20.262C60.9952 20.094 61.5599 20.01 62.1479 20.01C63.1652 20.01 63.9492 20.2573 64.4999 20.752C65.0505 21.2467 65.3259 22.0027 65.3259 23.02V27.5H64.0519ZM61.6159 27.584C61.0652 27.584 60.5799 27.4907 60.1599 27.304C59.7492 27.1173 59.4319 26.8607 59.2079 26.534C58.9839 26.198 58.8719 25.82 58.8719 25.4C58.8719 24.9987 58.9652 24.6347 59.1519 24.308C59.3479 23.9813 59.6605 23.72 60.0899 23.524C60.5285 23.328 61.1165 23.23 61.8539 23.23H64.2059V24.196H61.9099C61.2379 24.196 60.7852 24.308 60.5519 24.532C60.3185 24.756 60.2019 25.0267 60.2019 25.344C60.2019 25.708 60.3465 26.002 60.6359 26.226C60.9252 26.4407 61.3265 26.548 61.8399 26.548C62.3439 26.548 62.7825 26.436 63.1559 26.212C63.5385 25.988 63.8139 25.6613 63.9819 25.232L64.2479 26.156C64.0705 26.5947 63.7579 26.9447 63.3099 27.206C62.8619 27.458 62.2972 27.584 61.6159 27.584ZM67.8131 27.5V20.08H69.1571V27.5H67.8131ZM68.4851 18.652C68.2237 18.652 68.0044 18.568 67.8271 18.4C67.6591 18.232 67.5751 18.0267 67.5751 17.784C67.5751 17.532 67.6591 17.322 67.8271 17.154C68.0044 16.986 68.2237 16.902 68.4851 16.902C68.7464 16.902 68.9611 16.986 69.1291 17.154C69.3064 17.3127 69.3951 17.5133 69.3951 17.756C69.3951 18.008 69.3111 18.2227 69.1431 18.4C68.9751 18.568 68.7557 18.652 68.4851 18.652ZM71.7232 27.5V17.112H73.0672V27.5H71.7232ZM75.9554 21.928C75.694 21.928 75.47 21.8393 75.2834 21.662C75.0967 21.4753 75.0034 21.242 75.0034 20.962C75.0034 20.682 75.0967 20.4533 75.2834 20.276C75.47 20.0987 75.694 20.01 75.9554 20.01C76.2074 20.01 76.422 20.0987 76.5994 20.276C76.786 20.4533 76.8794 20.682 76.8794 20.962C76.8794 21.242 76.786 21.4753 76.5994 21.662C76.422 21.8393 76.2074 21.928 75.9554 21.928ZM75.9554 27.584C75.694 27.584 75.47 27.4953 75.2834 27.318C75.0967 27.1313 75.0034 26.898 75.0034 26.618C75.0034 26.338 75.0967 26.1093 75.2834 25.932C75.47 25.7547 75.694 25.666 75.9554 25.666C76.2074 25.666 76.422 25.7547 76.5994 25.932C76.786 26.1093 76.8794 26.338 76.8794 26.618C76.8794 26.898 76.786 27.1313 76.5994 27.318C76.422 27.4953 76.2074 27.584 75.9554 27.584ZM82.565 27.5V20.08H83.909V27.5H82.565ZM83.237 18.652C82.9757 18.652 82.7563 18.568 82.579 18.4C82.411 18.232 82.327 18.0267 82.327 17.784C82.327 17.532 82.411 17.322 82.579 17.154C82.7563 16.986 82.9757 16.902 83.237 16.902C83.4983 16.902 83.713 16.986 83.881 17.154C84.0583 17.3127 84.147 17.5133 84.147 17.756C84.147 18.008 84.063 18.2227 83.895 18.4C83.727 18.568 83.5077 18.652 83.237 18.652ZM90.4372 20.01C91.0438 20.01 91.5758 20.1267 92.0332 20.36C92.4998 20.5933 92.8638 20.948 93.1252 21.424C93.3865 21.9 93.5172 22.502 93.5172 23.23V27.5H92.1732V23.384C92.1732 22.6653 91.9958 22.124 91.6412 21.76C91.2958 21.396 90.8058 21.214 90.1712 21.214C89.6952 21.214 89.2798 21.3073 88.9252 21.494C88.5705 21.6807 88.2952 21.956 88.0992 22.32C87.9125 22.684 87.8192 23.1367 87.8192 23.678V27.5H86.4752V20.08H87.7632V22.082L87.5532 21.55C87.7958 21.0647 88.1692 20.6867 88.6732 20.416C89.1772 20.1453 89.7652 20.01 90.4372 20.01ZM96.2005 27.5V19.422C96.2005 18.694 96.4105 18.1153 96.8305 17.686C97.2598 17.2473 97.8665 17.028 98.6505 17.028C98.9398 17.028 99.2151 17.0653 99.4765 17.14C99.7471 17.2053 99.9758 17.3127 100.162 17.462L99.7565 18.484C99.6165 18.372 99.4578 18.288 99.2805 18.232C99.1031 18.1667 98.9165 18.134 98.7205 18.134C98.3285 18.134 98.0298 18.246 97.8245 18.47C97.6191 18.6847 97.5165 19.0067 97.5165 19.436V20.43L97.5445 21.046V27.5H96.2005ZM94.9405 21.186V20.08H99.6725V21.186H94.9405ZM104.009 27.584C103.262 27.584 102.599 27.4207 102.021 27.094C101.442 26.7673 100.985 26.3193 100.649 25.75C100.313 25.1713 100.145 24.518 100.145 23.79C100.145 23.0527 100.313 22.3993 100.649 21.83C100.985 21.2607 101.442 20.8173 102.021 20.5C102.599 20.1733 103.262 20.01 104.009 20.01C104.746 20.01 105.404 20.1733 105.983 20.5C106.571 20.8173 107.028 21.2607 107.355 21.83C107.691 22.39 107.859 23.0433 107.859 23.79C107.859 24.5273 107.691 25.1807 107.355 25.75C107.028 26.3193 106.571 26.7673 105.983 27.094C105.404 27.4207 104.746 27.584 104.009 27.584ZM104.009 26.408C104.485 26.408 104.909 26.3007 105.283 26.086C105.665 25.8713 105.964 25.568 106.179 25.176C106.393 24.7747 106.501 24.3127 106.501 23.79C106.501 23.258 106.393 22.8007 106.179 22.418C105.964 22.026 105.665 21.7227 105.283 21.508C104.909 21.2933 104.485 21.186 104.009 21.186C103.533 21.186 103.108 21.2933 102.735 21.508C102.361 21.7227 102.063 22.026 101.839 22.418C101.615 22.8007 101.503 23.258 101.503 23.79C101.503 24.3127 101.615 24.7747 101.839 25.176C102.063 25.568 102.361 25.8713 102.735 26.086C103.108 26.3007 103.533 26.408 104.009 26.408ZM115.667 30.328C114.697 30.328 113.81 30.1693 113.007 29.852C112.205 29.5347 111.514 29.0913 110.935 28.522C110.357 27.9527 109.909 27.2807 109.591 26.506C109.274 25.722 109.115 24.868 109.115 23.944C109.115 23.02 109.274 22.1707 109.591 21.396C109.909 20.6213 110.357 19.9493 110.935 19.38C111.523 18.8107 112.223 18.372 113.035 18.064C113.847 17.756 114.743 17.602 115.723 17.602C116.685 17.602 117.562 17.7513 118.355 18.05C119.149 18.3487 119.835 18.7733 120.413 19.324C121.001 19.8653 121.454 20.514 121.771 21.27C122.089 22.0167 122.247 22.8427 122.247 23.748C122.247 24.5413 122.149 25.2227 121.953 25.792C121.757 26.3613 121.473 26.8047 121.099 27.122C120.735 27.43 120.287 27.584 119.755 27.584C119.233 27.584 118.813 27.4253 118.495 27.108C118.187 26.7907 118.033 26.338 118.033 25.75V24.798L118.103 23.944L117.977 22.334V20.472H119.195V25.512C119.195 25.8853 119.27 26.1467 119.419 26.296C119.578 26.4453 119.769 26.52 119.993 26.52C120.264 26.52 120.497 26.4127 120.693 26.198C120.899 25.9833 121.048 25.6707 121.141 25.26C121.244 24.84 121.295 24.3407 121.295 23.762C121.295 22.978 121.16 22.2687 120.889 21.634C120.628 20.99 120.245 20.4347 119.741 19.968C119.247 19.5013 118.659 19.1467 117.977 18.904C117.305 18.652 116.554 18.526 115.723 18.526C114.893 18.526 114.132 18.6613 113.441 18.932C112.76 19.1933 112.172 19.5667 111.677 20.052C111.183 20.528 110.8 21.0973 110.529 21.76C110.268 22.4227 110.137 23.1507 110.137 23.944C110.137 24.7467 110.268 25.484 110.529 26.156C110.791 26.8187 111.164 27.388 111.649 27.864C112.144 28.3493 112.727 28.7227 113.399 28.984C114.081 29.2547 114.837 29.39 115.667 29.39C116.097 29.39 116.549 29.3387 117.025 29.236C117.501 29.1427 117.949 28.9887 118.369 28.774L118.677 29.67C118.248 29.8847 117.763 30.048 117.221 30.16C116.68 30.272 116.162 30.328 115.667 30.328ZM115.415 27.584C114.753 27.584 114.165 27.43 113.651 27.122C113.138 26.8047 112.732 26.3753 112.433 25.834C112.135 25.2927 111.985 24.6767 111.985 23.986C111.985 23.286 112.135 22.67 112.433 22.138C112.732 21.5967 113.138 21.1767 113.651 20.878C114.165 20.57 114.753 20.416 115.415 20.416C116.059 20.416 116.624 20.556 117.109 20.836C117.595 21.1067 117.973 21.508 118.243 22.04C118.523 22.572 118.663 23.2207 118.663 23.986C118.663 24.7513 118.528 25.4 118.257 25.932C117.987 26.464 117.609 26.8747 117.123 27.164C116.638 27.444 116.069 27.584 115.415 27.584ZM115.611 26.492C116.069 26.492 116.475 26.394 116.829 26.198C117.193 25.9927 117.478 25.7033 117.683 25.33C117.898 24.9473 118.005 24.4993 118.005 23.986C118.005 23.4633 117.898 23.0153 117.683 22.642C117.478 22.2687 117.193 21.984 116.829 21.788C116.475 21.592 116.069 21.494 115.611 21.494C115.145 21.494 114.729 21.5967 114.365 21.802C114.011 21.998 113.731 22.2827 113.525 22.656C113.329 23.0293 113.231 23.4727 113.231 23.986C113.231 24.49 113.329 24.9287 113.525 25.302C113.731 25.6753 114.011 25.9693 114.365 26.184C114.729 26.3893 115.145 26.492 115.611 26.492ZM128.802 27.5V25.932L128.732 25.638V22.964C128.732 22.3947 128.564 21.956 128.228 21.648C127.901 21.3307 127.407 21.172 126.744 21.172C126.305 21.172 125.876 21.2467 125.456 21.396C125.036 21.536 124.681 21.7273 124.392 21.97L123.832 20.962C124.215 20.654 124.672 20.4207 125.204 20.262C125.745 20.094 126.31 20.01 126.898 20.01C127.915 20.01 128.699 20.2573 129.25 20.752C129.801 21.2467 130.076 22.0027 130.076 23.02V27.5H128.802ZM126.366 27.584C125.815 27.584 125.33 27.4907 124.91 27.304C124.499 27.1173 124.182 26.8607 123.958 26.534C123.734 26.198 123.622 25.82 123.622 25.4C123.622 24.9987 123.715 24.6347 123.902 24.308C124.098 23.9813 124.411 23.72 124.84 23.524C125.279 23.328 125.867 23.23 126.604 23.23H128.956V24.196H126.66C125.988 24.196 125.535 24.308 125.302 24.532C125.069 24.756 124.952 25.0267 124.952 25.344C124.952 25.708 125.097 26.002 125.386 26.226C125.675 26.4407 126.077 26.548 126.59 26.548C127.094 26.548 127.533 26.436 127.906 26.212C128.289 25.988 128.564 25.6613 128.732 25.232L128.998 26.156C128.821 26.5947 128.508 26.9447 128.06 27.206C127.612 27.458 127.047 27.584 126.366 27.584ZM133.655 25.708L133.683 23.986L137.953 20.08H139.577L136.301 23.3L135.573 23.916L133.655 25.708ZM132.563 27.5V17.112H133.907V27.5H132.563ZM138.233 27.5L135.321 23.888L136.189 22.81L139.885 27.5H138.233ZM141.386 27.5V19.422C141.386 18.694 141.596 18.1153 142.016 17.686C142.445 17.2473 143.052 17.028 143.836 17.028C144.125 17.028 144.401 17.0653 144.662 17.14C144.933 17.2053 145.161 17.3127 145.348 17.462L144.942 18.484C144.802 18.372 144.643 18.288 144.466 18.232C144.289 18.1667 144.102 18.134 143.906 18.134C143.514 18.134 143.215 18.246 143.01 18.47C142.805 18.6847 142.702 19.0067 142.702 19.436V20.43L142.73 21.046V27.5H141.386ZM140.126 21.186V20.08H144.858V21.186H140.126ZM150.595 27.5V25.932L150.525 25.638V22.964C150.525 22.3947 150.357 21.956 150.021 21.648C149.694 21.3307 149.2 21.172 148.537 21.172C148.098 21.172 147.669 21.2467 147.249 21.396C146.829 21.536 146.474 21.7273 146.185 21.97L145.625 20.962C146.008 20.654 146.465 20.4207 146.997 20.262C147.538 20.094 148.103 20.01 148.691 20.01C149.708 20.01 150.492 20.2573 151.043 20.752C151.594 21.2467 151.869 22.0027 151.869 23.02V27.5H150.595ZM148.159 27.584C147.608 27.584 147.123 27.4907 146.703 27.304C146.292 27.1173 145.975 26.8607 145.751 26.534C145.527 26.198 145.415 25.82 145.415 25.4C145.415 24.9987 145.508 24.6347 145.695 24.308C145.891 23.9813 146.204 23.72 146.633 23.524C147.072 23.328 147.66 23.23 148.397 23.23H150.749V24.196H148.453C147.781 24.196 147.328 24.308 147.095 24.532C146.862 24.756 146.745 25.0267 146.745 25.344C146.745 25.708 146.89 26.002 147.179 26.226C147.468 26.4407 147.87 26.548 148.383 26.548C148.887 26.548 149.326 26.436 149.699 26.212C150.082 25.988 150.357 25.6613 150.525 25.232L150.791 26.156C150.614 26.5947 150.301 26.9447 149.853 27.206C149.405 27.458 148.84 27.584 148.159 27.584ZM158.29 27.584C157.655 27.584 157.081 27.444 156.568 27.164C156.064 26.8747 155.663 26.45 155.364 25.89C155.075 25.33 154.93 24.63 154.93 23.79C154.93 22.95 155.079 22.25 155.378 21.69C155.686 21.13 156.092 20.71 156.596 20.43C157.109 20.15 157.674 20.01 158.29 20.01C159.018 20.01 159.662 20.1687 160.222 20.486C160.782 20.8033 161.225 21.2467 161.552 21.816C161.879 22.376 162.042 23.034 162.042 23.79C162.042 24.546 161.879 25.2087 161.552 25.778C161.225 26.3473 160.782 26.7907 160.222 27.108C159.662 27.4253 159.018 27.584 158.29 27.584ZM154.356 27.5V17.112H155.7V22.054L155.56 23.776L155.644 25.498V27.5H154.356ZM158.178 26.408C158.654 26.408 159.079 26.3007 159.452 26.086C159.835 25.8713 160.133 25.568 160.348 25.176C160.572 24.7747 160.684 24.3127 160.684 23.79C160.684 23.258 160.572 22.8007 160.348 22.418C160.133 22.026 159.835 21.7227 159.452 21.508C159.079 21.2933 158.654 21.186 158.178 21.186C157.711 21.186 157.287 21.2933 156.904 21.508C156.531 21.7227 156.232 22.026 156.008 22.418C155.793 22.8007 155.686 23.258 155.686 23.79C155.686 24.3127 155.793 24.7747 156.008 25.176C156.232 25.568 156.531 25.8713 156.904 26.086C157.287 26.3007 157.711 26.408 158.178 26.408ZM167.021 27.584C166.386 27.584 165.826 27.4673 165.341 27.234C164.865 27.0007 164.492 26.646 164.221 26.17C163.96 25.6847 163.829 25.078 163.829 24.35V20.08H165.173V24.196C165.173 24.924 165.346 25.47 165.691 25.834C166.046 26.198 166.54 26.38 167.175 26.38C167.642 26.38 168.048 26.2867 168.393 26.1C168.738 25.904 169.004 25.624 169.191 25.26C169.378 24.8867 169.471 24.4387 169.471 23.916V20.08H170.815V27.5H169.541V25.498L169.751 26.03C169.508 26.5247 169.144 26.9073 168.659 27.178C168.174 27.4487 167.628 27.584 167.021 27.584ZM173.374 27.5V20.08H174.718V27.5H173.374ZM174.046 18.652C173.784 18.652 173.565 18.568 173.388 18.4C173.22 18.232 173.136 18.0267 173.136 17.784C173.136 17.532 173.22 17.322 173.388 17.154C173.565 16.986 173.784 16.902 174.046 16.902C174.307 16.902 174.522 16.986 174.69 17.154C174.867 17.3127 174.956 17.5133 174.956 17.756C174.956 18.008 174.872 18.2227 174.704 18.4C174.536 18.568 174.316 18.652 174.046 18.652ZM177.284 27.5V17.112H178.628V27.5H177.284ZM184.26 27.584C183.541 27.584 182.897 27.4253 182.328 27.108C181.768 26.7907 181.325 26.3473 180.998 25.778C180.671 25.2087 180.508 24.546 180.508 23.79C180.508 23.034 180.671 22.376 180.998 21.816C181.325 21.2467 181.768 20.8033 182.328 20.486C182.897 20.1687 183.541 20.01 184.26 20.01C184.885 20.01 185.45 20.15 185.954 20.43C186.458 20.71 186.859 21.13 187.158 21.69C187.466 22.25 187.62 22.95 187.62 23.79C187.62 24.63 187.471 25.33 187.172 25.89C186.883 26.45 186.486 26.8747 185.982 27.164C185.478 27.444 184.904 27.584 184.26 27.584ZM184.372 26.408C184.839 26.408 185.259 26.3007 185.632 26.086C186.015 25.8713 186.313 25.568 186.528 25.176C186.752 24.7747 186.864 24.3127 186.864 23.79C186.864 23.258 186.752 22.8007 186.528 22.418C186.313 22.026 186.015 21.7227 185.632 21.508C185.259 21.2933 184.839 21.186 184.372 21.186C183.896 21.186 183.471 21.2933 183.098 21.508C182.725 21.7227 182.426 22.026 182.202 22.418C181.978 22.8007 181.866 23.258 181.866 23.79C181.866 24.3127 181.978 24.7747 182.202 25.176C182.426 25.568 182.725 25.8713 183.098 26.086C183.471 26.3007 183.896 26.408 184.372 26.408ZM186.906 27.5V25.498L186.99 23.776L186.85 22.054V17.112H188.194V27.5H186.906ZM191.059 27.584C190.798 27.584 190.574 27.4953 190.387 27.318C190.2 27.1313 190.107 26.898 190.107 26.618C190.107 26.338 190.2 26.1093 190.387 25.932C190.574 25.7547 190.798 25.666 191.059 25.666C191.311 25.666 191.526 25.7547 191.703 25.932C191.89 26.1093 191.983 26.338 191.983 26.618C191.983 26.898 191.89 27.1313 191.703 27.318C191.526 27.4953 191.311 27.584 191.059 27.584ZM196.979 27.584C196.223 27.584 195.546 27.4207 194.949 27.094C194.361 26.7673 193.899 26.3193 193.563 25.75C193.227 25.1807 193.059 24.5273 193.059 23.79C193.059 23.0527 193.227 22.3993 193.563 21.83C193.899 21.2607 194.361 20.8173 194.949 20.5C195.546 20.1733 196.223 20.01 196.979 20.01C197.651 20.01 198.248 20.1453 198.771 20.416C199.303 20.6773 199.713 21.0693 200.003 21.592L198.981 22.25C198.738 21.886 198.439 21.62 198.085 21.452C197.739 21.2747 197.366 21.186 196.965 21.186C196.479 21.186 196.045 21.2933 195.663 21.508C195.28 21.7227 194.977 22.026 194.753 22.418C194.529 22.8007 194.417 23.258 194.417 23.79C194.417 24.322 194.529 24.784 194.753 25.176C194.977 25.568 195.28 25.8713 195.663 26.086C196.045 26.3007 196.479 26.408 196.965 26.408C197.366 26.408 197.739 26.324 198.085 26.156C198.439 25.9787 198.738 25.708 198.981 25.344L200.003 25.988C199.713 26.5013 199.303 26.898 198.771 27.178C198.248 27.4487 197.651 27.584 196.979 27.584ZM204.811 27.584C204.065 27.584 203.402 27.4207 202.823 27.094C202.245 26.7673 201.787 26.3193 201.451 25.75C201.115 25.1713 200.947 24.518 200.947 23.79C200.947 23.0527 201.115 22.3993 201.451 21.83C201.787 21.2607 202.245 20.8173 202.823 20.5C203.402 20.1733 204.065 20.01 204.811 20.01C205.549 20.01 206.207 20.1733 206.785 20.5C207.373 20.8173 207.831 21.2607 208.157 21.83C208.493 22.39 208.661 23.0433 208.661 23.79C208.661 24.5273 208.493 25.1807 208.157 25.75C207.831 26.3193 207.373 26.7673 206.785 27.094C206.207 27.4207 205.549 27.584 204.811 27.584ZM204.811 26.408C205.287 26.408 205.712 26.3007 206.085 26.086C206.468 25.8713 206.767 25.568 206.981 25.176C207.196 24.7747 207.303 24.3127 207.303 23.79C207.303 23.258 207.196 22.8007 206.981 22.418C206.767 22.026 206.468 21.7227 206.085 21.508C205.712 21.2933 205.287 21.186 204.811 21.186C204.335 21.186 203.911 21.2933 203.537 21.508C203.164 21.7227 202.865 22.026 202.641 22.418C202.417 22.8007 202.305 23.258 202.305 23.79C202.305 24.3127 202.417 24.7747 202.641 25.176C202.865 25.568 203.164 25.8713 203.537 26.086C203.911 26.3007 204.335 26.408 204.811 26.408ZM219.802 20.01C220.399 20.01 220.927 20.1267 221.384 20.36C221.841 20.5933 222.196 20.948 222.448 21.424C222.709 21.9 222.84 22.502 222.84 23.23V27.5H221.496V23.384C221.496 22.6653 221.328 22.124 220.992 21.76C220.656 21.396 220.185 21.214 219.578 21.214C219.13 21.214 218.738 21.3073 218.402 21.494C218.066 21.6807 217.805 21.956 217.618 22.32C217.441 22.684 217.352 23.1367 217.352 23.678V27.5H216.008V23.384C216.008 22.6653 215.84 22.124 215.504 21.76C215.177 21.396 214.706 21.214 214.09 21.214C213.651 21.214 213.264 21.3073 212.928 21.494C212.592 21.6807 212.331 21.956 212.144 22.32C211.957 22.684 211.864 23.1367 211.864 23.678V27.5H210.52V20.08H211.808V22.054L211.598 21.55C211.831 21.0647 212.191 20.6867 212.676 20.416C213.161 20.1453 213.726 20.01 214.37 20.01C215.079 20.01 215.691 20.1873 216.204 20.542C216.717 20.8873 217.053 21.4147 217.212 22.124L216.666 21.9C216.89 21.3307 217.282 20.8733 217.842 20.528C218.402 20.1827 219.055 20.01 219.802 20.01Z" fill="#636C79"/>
<defs>
<clipPath id="clip0_903_2766">
<rect width="24" height="24" fill="white" transform="translate(0 10)"/>
</clipPath>
</defs>
</svg>
