<svg width="212" height="44" viewBox="0 0 212 44" fill="none" xmlns="http://www.w3.org/2000/svg">
<g clip-path="url(#clip0_903_2763)">
<path d="M21 25.46L15.73 24.85L13.21 27.37C10.38 25.93 8.06002 23.62 6.62002 20.78L9.15002 18.25L8.54002 13H3.03002C2.45002 23.18 10.82 31.55 21 30.97V25.46Z" fill="#636C79"/>
</g>
<path d="M37.416 27.5V18.918H34.056V17.7H42.162V18.918H38.802V27.5H37.416ZM46.0292 27.584C45.2358 27.584 44.5358 27.4207 43.9292 27.094C43.3318 26.7673 42.8652 26.3193 42.5292 25.75C42.2025 25.1807 42.0392 24.5273 42.0392 23.79C42.0392 23.0527 42.1978 22.3993 42.5152 21.83C42.8418 21.2607 43.2852 20.8173 43.8452 20.5C44.4145 20.1733 45.0538 20.01 45.7632 20.01C46.4818 20.01 47.1165 20.1687 47.6672 20.486C48.2178 20.8033 48.6472 21.2513 48.9552 21.83C49.2725 22.3993 49.4312 23.0667 49.4312 23.832C49.4312 23.888 49.4265 23.9533 49.4172 24.028C49.4172 24.1027 49.4125 24.1727 49.4032 24.238H43.0892V23.272H48.7032L48.1572 23.608C48.1665 23.132 48.0685 22.7073 47.8632 22.334C47.6578 21.9607 47.3732 21.6713 47.0092 21.466C46.6545 21.2513 46.2392 21.144 45.7632 21.144C45.2965 21.144 44.8812 21.2513 44.5172 21.466C44.1532 21.6713 43.8685 21.9653 43.6632 22.348C43.4578 22.7213 43.3552 23.1507 43.3552 23.636V23.86C43.3552 24.3547 43.4672 24.798 43.6912 25.19C43.9245 25.5727 44.2465 25.8713 44.6572 26.086C45.0678 26.3007 45.5392 26.408 46.0712 26.408C46.5098 26.408 46.9065 26.3333 47.2612 26.184C47.6252 26.0347 47.9425 25.8107 48.2132 25.512L48.9552 26.38C48.6192 26.772 48.1992 27.0707 47.6952 27.276C47.2005 27.4813 46.6452 27.584 46.0292 27.584ZM51.2974 27.5V17.112H52.6414V27.5H51.2974ZM58.5116 27.584C57.7183 27.584 57.0183 27.4207 56.4116 27.094C55.8143 26.7673 55.3476 26.3193 55.0116 25.75C54.6849 25.1807 54.5216 24.5273 54.5216 23.79C54.5216 23.0527 54.6803 22.3993 54.9976 21.83C55.3243 21.2607 55.7676 20.8173 56.3276 20.5C56.8969 20.1733 57.5363 20.01 58.2456 20.01C58.9643 20.01 59.5989 20.1687 60.1496 20.486C60.7003 20.8033 61.1296 21.2513 61.4376 21.83C61.7549 22.3993 61.9136 23.0667 61.9136 23.832C61.9136 23.888 61.9089 23.9533 61.8996 24.028C61.8996 24.1027 61.8949 24.1727 61.8856 24.238H55.5716V23.272H61.1856L60.6396 23.608C60.6489 23.132 60.5509 22.7073 60.3456 22.334C60.1403 21.9607 59.8556 21.6713 59.4916 21.466C59.1369 21.2513 58.7216 21.144 58.2456 21.144C57.7789 21.144 57.3636 21.2513 56.9996 21.466C56.6356 21.6713 56.3509 21.9653 56.1456 22.348C55.9403 22.7213 55.8376 23.1507 55.8376 23.636V23.86C55.8376 24.3547 55.9496 24.798 56.1736 25.19C56.4069 25.5727 56.7289 25.8713 57.1396 26.086C57.5503 26.3007 58.0216 26.408 58.5536 26.408C58.9923 26.408 59.3889 26.3333 59.7436 26.184C60.1076 26.0347 60.4249 25.8107 60.6956 25.512L61.4376 26.38C61.1016 26.772 60.6816 27.0707 60.1776 27.276C59.6829 27.4813 59.1276 27.584 58.5116 27.584ZM63.9759 27.5V19.422C63.9759 18.694 64.1859 18.1153 64.6059 17.686C65.0352 17.2473 65.6419 17.028 66.4259 17.028C66.7152 17.028 66.9905 17.0653 67.2519 17.14C67.5225 17.2053 67.7512 17.3127 67.9379 17.462L67.5319 18.484C67.3919 18.372 67.2332 18.288 67.0559 18.232C66.8785 18.1667 66.6919 18.134 66.4959 18.134C66.1039 18.134 65.8052 18.246 65.5999 18.47C65.3945 18.6847 65.2919 19.0067 65.2919 19.436V20.43L65.3199 21.046V27.5H63.9759ZM62.7159 21.186V20.08H67.4479V21.186H62.7159ZM71.784 27.584C71.0374 27.584 70.3747 27.4207 69.796 27.094C69.2174 26.7673 68.76 26.3193 68.424 25.75C68.088 25.1713 67.92 24.518 67.92 23.79C67.92 23.0527 68.088 22.3993 68.424 21.83C68.76 21.2607 69.2174 20.8173 69.796 20.5C70.3747 20.1733 71.0374 20.01 71.784 20.01C72.5214 20.01 73.1794 20.1733 73.758 20.5C74.346 20.8173 74.8034 21.2607 75.13 21.83C75.466 22.39 75.634 23.0433 75.634 23.79C75.634 24.5273 75.466 25.1807 75.13 25.75C74.8034 26.3193 74.346 26.7673 73.758 27.094C73.1794 27.4207 72.5214 27.584 71.784 27.584ZM71.784 26.408C72.26 26.408 72.6847 26.3007 73.058 26.086C73.4407 25.8713 73.7394 25.568 73.954 25.176C74.1687 24.7747 74.276 24.3127 74.276 23.79C74.276 23.258 74.1687 22.8007 73.954 22.418C73.7394 22.026 73.4407 21.7227 73.058 21.508C72.6847 21.2933 72.26 21.186 71.784 21.186C71.308 21.186 70.8834 21.2933 70.51 21.508C70.1367 21.7227 69.838 22.026 69.614 22.418C69.39 22.8007 69.278 23.258 69.278 23.79C69.278 24.3127 69.39 24.7747 69.614 25.176C69.838 25.568 70.1367 25.8713 70.51 26.086C70.8834 26.3007 71.308 26.408 71.784 26.408ZM81.4548 20.01C82.0614 20.01 82.5934 20.1267 83.0508 20.36C83.5174 20.5933 83.8814 20.948 84.1428 21.424C84.4041 21.9 84.5348 22.502 84.5348 23.23V27.5H83.1908V23.384C83.1908 22.6653 83.0134 22.124 82.6588 21.76C82.3134 21.396 81.8234 21.214 81.1888 21.214C80.7128 21.214 80.2974 21.3073 79.9428 21.494C79.5881 21.6807 79.3128 21.956 79.1168 22.32C78.9301 22.684 78.8368 23.1367 78.8368 23.678V27.5H77.4928V20.08H78.7808V22.082L78.5708 21.55C78.8134 21.0647 79.1868 20.6867 79.6908 20.416C80.1948 20.1453 80.7828 20.01 81.4548 20.01ZM87.344 21.928C87.0827 21.928 86.8587 21.8393 86.672 21.662C86.4854 21.4753 86.392 21.242 86.392 20.962C86.392 20.682 86.4854 20.4533 86.672 20.276C86.8587 20.0987 87.0827 20.01 87.344 20.01C87.596 20.01 87.8107 20.0987 87.988 20.276C88.1747 20.4533 88.268 20.682 88.268 20.962C88.268 21.242 88.1747 21.4753 87.988 21.662C87.8107 21.8393 87.596 21.928 87.344 21.928ZM87.344 27.584C87.0827 27.584 86.8587 27.4953 86.672 27.318C86.4854 27.1313 86.392 26.898 86.392 26.618C86.392 26.338 86.4854 26.1093 86.672 25.932C86.8587 25.7547 87.0827 25.666 87.344 25.666C87.596 25.666 87.8107 25.7547 87.988 25.932C88.1747 26.1093 88.268 26.338 88.268 26.618C88.268 26.898 88.1747 27.1313 87.988 27.318C87.8107 27.4953 87.596 27.584 87.344 27.584ZM96.1657 25.666V19.534H97.3417V25.666H96.1657ZM93.6177 23.16V22.054H99.8897V23.16H93.6177ZM104.678 17.588C105.565 17.588 106.311 17.7793 106.918 18.162C107.534 18.5447 108.001 19.1 108.318 19.828C108.635 20.5467 108.794 21.4287 108.794 22.474C108.794 23.5847 108.598 24.5227 108.206 25.288C107.814 26.0533 107.273 26.632 106.582 27.024C105.891 27.416 105.084 27.612 104.16 27.612C103.703 27.612 103.259 27.5653 102.83 27.472C102.41 27.3787 102.041 27.234 101.724 27.038L102.256 25.946C102.517 26.114 102.807 26.2353 103.124 26.31C103.451 26.3753 103.791 26.408 104.146 26.408C105.135 26.408 105.924 26.1 106.512 25.484C107.1 24.8587 107.394 23.9347 107.394 22.712C107.394 22.516 107.385 22.2827 107.366 22.012C107.347 21.7413 107.305 21.4753 107.24 21.214L107.702 21.69C107.571 22.1193 107.352 22.4833 107.044 22.782C106.745 23.0713 106.381 23.2907 105.952 23.44C105.532 23.58 105.07 23.65 104.566 23.65C103.922 23.65 103.348 23.5287 102.844 23.286C102.34 23.0433 101.943 22.7027 101.654 22.264C101.365 21.816 101.22 21.2887 101.22 20.682C101.22 20.0473 101.369 19.5013 101.668 19.044C101.976 18.5773 102.391 18.218 102.914 17.966C103.446 17.714 104.034 17.588 104.678 17.588ZM104.734 18.722C104.314 18.722 103.941 18.8013 103.614 18.96C103.287 19.1187 103.031 19.338 102.844 19.618C102.667 19.898 102.578 20.234 102.578 20.626C102.578 21.2047 102.779 21.6667 103.18 22.012C103.581 22.348 104.123 22.516 104.804 22.516C105.252 22.516 105.644 22.432 105.98 22.264C106.325 22.096 106.591 21.8673 106.778 21.578C106.974 21.2887 107.072 20.9667 107.072 20.612C107.072 20.2667 106.983 19.954 106.806 19.674C106.629 19.394 106.367 19.1653 106.022 18.988C105.677 18.8107 105.247 18.722 104.734 18.722ZM113.319 17.588C114.205 17.588 114.952 17.7793 115.559 18.162C116.175 18.5447 116.641 19.1 116.959 19.828C117.276 20.5467 117.435 21.4287 117.435 22.474C117.435 23.5847 117.239 24.5227 116.847 25.288C116.455 26.0533 115.913 26.632 115.223 27.024C114.532 27.416 113.725 27.612 112.801 27.612C112.343 27.612 111.9 27.5653 111.471 27.472C111.051 27.3787 110.682 27.234 110.365 27.038L110.897 25.946C111.158 26.114 111.447 26.2353 111.765 26.31C112.091 26.3753 112.432 26.408 112.787 26.408C113.776 26.408 114.565 26.1 115.153 25.484C115.741 24.8587 116.035 23.9347 116.035 22.712C116.035 22.516 116.025 22.2827 116.007 22.012C115.988 21.7413 115.946 21.4753 115.881 21.214L116.343 21.69C116.212 22.1193 115.993 22.4833 115.685 22.782C115.386 23.0713 115.022 23.2907 114.593 23.44C114.173 23.58 113.711 23.65 113.207 23.65C112.563 23.65 111.989 23.5287 111.485 23.286C110.981 23.0433 110.584 22.7027 110.295 22.264C110.005 21.816 109.861 21.2887 109.861 20.682C109.861 20.0473 110.01 19.5013 110.309 19.044C110.617 18.5773 111.032 18.218 111.555 17.966C112.087 17.714 112.675 17.588 113.319 17.588ZM113.375 18.722C112.955 18.722 112.581 18.8013 112.255 18.96C111.928 19.1187 111.671 19.338 111.485 19.618C111.307 19.898 111.219 20.234 111.219 20.626C111.219 21.2047 111.419 21.6667 111.821 22.012C112.222 22.348 112.763 22.516 113.445 22.516C113.893 22.516 114.285 22.432 114.621 22.264C114.966 22.096 115.232 21.8673 115.419 21.578C115.615 21.2887 115.713 20.9667 115.713 20.612C115.713 20.2667 115.624 19.954 115.447 19.674C115.269 19.394 115.008 19.1653 114.663 18.988C114.317 18.8107 113.888 18.722 113.375 18.722ZM122.603 27.612C121.81 27.612 121.124 27.4953 120.545 27.262C119.967 27.0287 119.519 26.6973 119.201 26.268C118.884 25.8293 118.725 25.316 118.725 24.728C118.725 24.1493 118.875 23.6593 119.173 23.258C119.481 22.8473 119.925 22.5393 120.503 22.334C121.082 22.1193 121.782 22.012 122.603 22.012C123.425 22.012 124.125 22.1193 124.703 22.334C125.291 22.5393 125.739 22.8473 126.047 23.258C126.355 23.6687 126.509 24.1587 126.509 24.728C126.509 25.316 126.351 25.8293 126.033 26.268C125.716 26.6973 125.263 27.0287 124.675 27.262C124.087 27.4953 123.397 27.612 122.603 27.612ZM122.603 26.478C123.387 26.478 123.999 26.3193 124.437 26.002C124.885 25.6753 125.109 25.2367 125.109 24.686C125.109 24.1447 124.885 23.72 124.437 23.412C123.999 23.0947 123.387 22.936 122.603 22.936C121.829 22.936 121.222 23.0947 120.783 23.412C120.345 23.72 120.125 24.1447 120.125 24.686C120.125 25.2367 120.345 25.6753 120.783 26.002C121.222 26.3193 121.829 26.478 122.603 26.478ZM122.603 22.768C121.857 22.768 121.222 22.67 120.699 22.474C120.177 22.2687 119.775 21.9793 119.495 21.606C119.215 21.2233 119.075 20.7707 119.075 20.248C119.075 19.6973 119.22 19.226 119.509 18.834C119.808 18.4327 120.223 18.1247 120.755 17.91C121.287 17.6953 121.903 17.588 122.603 17.588C123.313 17.588 123.933 17.6953 124.465 17.91C124.997 18.1247 125.413 18.4327 125.711 18.834C126.01 19.226 126.159 19.6973 126.159 20.248C126.159 20.7707 126.019 21.2233 125.739 21.606C125.459 21.9793 125.053 22.2687 124.521 22.474C123.989 22.67 123.35 22.768 122.603 22.768ZM122.603 21.872C123.285 21.872 123.817 21.732 124.199 21.452C124.591 21.172 124.787 20.7893 124.787 20.304C124.787 19.8093 124.587 19.422 124.185 19.142C123.784 18.862 123.257 18.722 122.603 18.722C121.95 18.722 121.427 18.862 121.035 19.142C120.653 19.422 120.461 19.8093 120.461 20.304C120.461 20.7893 120.648 21.172 121.021 21.452C121.404 21.732 121.931 21.872 122.603 21.872ZM133.245 27.5L137.403 18.288L137.767 18.918H131.943L132.643 18.232V20.668H131.299V17.7H138.691V18.652L134.729 27.5H133.245ZM141.707 27.5V18.26L142.309 18.918H139.495V17.7H143.093V27.5H141.707ZM150.648 27.5V18.26L151.25 18.918H148.436V17.7H152.034V27.5H150.648ZM154.024 27.5V26.548L158.014 22.698C158.369 22.362 158.63 22.068 158.798 21.816C158.975 21.5547 159.092 21.3167 159.148 21.102C159.213 20.878 159.246 20.6633 159.246 20.458C159.246 19.954 159.069 19.5573 158.714 19.268C158.359 18.9787 157.841 18.834 157.16 18.834C156.637 18.834 156.166 18.9227 155.746 19.1C155.326 19.268 154.962 19.534 154.654 19.898L153.702 19.072C154.075 18.596 154.575 18.232 155.2 17.98C155.835 17.7187 156.53 17.588 157.286 17.588C157.967 17.588 158.56 17.7 159.064 17.924C159.568 18.1387 159.955 18.4513 160.226 18.862C160.506 19.2727 160.646 19.758 160.646 20.318C160.646 20.6353 160.604 20.948 160.52 21.256C160.436 21.564 160.277 21.8907 160.044 22.236C159.811 22.5813 159.475 22.9687 159.036 23.398L155.48 26.828L155.144 26.282H161.066V27.5H154.024ZM165.213 27.612C164.522 27.612 163.85 27.5047 163.197 27.29C162.553 27.0753 162.026 26.786 161.615 26.422L162.259 25.316C162.586 25.624 163.01 25.876 163.533 26.072C164.056 26.268 164.616 26.366 165.213 26.366C165.941 26.366 166.506 26.212 166.907 25.904C167.318 25.5867 167.523 25.162 167.523 24.63C167.523 24.1167 167.327 23.706 166.935 23.398C166.552 23.0807 165.941 22.922 165.101 22.922H164.317V21.942L167.229 18.358L167.425 18.918H162.063V17.7H168.531V18.652L165.633 22.222L164.905 21.788H165.367C166.552 21.788 167.439 22.054 168.027 22.586C168.624 23.118 168.923 23.7947 168.923 24.616C168.923 25.1667 168.788 25.6707 168.517 26.128C168.246 26.5853 167.836 26.9493 167.285 27.22C166.744 27.4813 166.053 27.612 165.213 27.612ZM173.848 25.092V24.112L178.86 17.7H180.372L175.402 24.112L174.688 23.888H182.514V25.092H173.848ZM179.294 27.5V25.092L179.336 23.888V21.76H180.652V27.5H179.294ZM186.504 27.612C185.813 27.612 185.141 27.5047 184.488 27.29C183.844 27.0753 183.317 26.786 182.906 26.422L183.55 25.316C183.877 25.624 184.301 25.876 184.824 26.072C185.347 26.268 185.902 26.366 186.49 26.366C187.237 26.366 187.811 26.2073 188.212 25.89C188.613 25.5727 188.814 25.148 188.814 24.616C188.814 24.252 188.725 23.9347 188.548 23.664C188.371 23.3933 188.063 23.188 187.624 23.048C187.195 22.8987 186.602 22.824 185.846 22.824H183.62L184.138 17.7H189.668V18.918H184.656L185.384 18.232L184.978 22.278L184.25 21.606H186.14C187.12 21.606 187.909 21.732 188.506 21.984C189.103 22.236 189.537 22.586 189.808 23.034C190.079 23.4727 190.214 23.9813 190.214 24.56C190.214 25.12 190.079 25.6333 189.808 26.1C189.537 26.5573 189.127 26.926 188.576 27.206C188.035 27.4767 187.344 27.612 186.504 27.612ZM199.255 27.612C198.387 27.612 197.645 27.4207 197.029 27.038C196.413 26.6553 195.941 26.1047 195.615 25.386C195.297 24.658 195.139 23.7713 195.139 22.726C195.139 21.6153 195.335 20.6773 195.727 19.912C196.119 19.1467 196.665 18.568 197.365 18.176C198.065 17.784 198.867 17.588 199.773 17.588C200.239 17.588 200.683 17.6347 201.103 17.728C201.532 17.8213 201.901 17.966 202.209 18.162L201.677 19.254C201.425 19.0767 201.135 18.9553 200.809 18.89C200.491 18.8247 200.155 18.792 199.801 18.792C198.802 18.792 198.009 19.1047 197.421 19.73C196.833 20.346 196.539 21.2653 196.539 22.488C196.539 22.684 196.548 22.9173 196.567 23.188C196.585 23.4587 196.632 23.7247 196.707 23.986L196.231 23.51C196.371 23.0807 196.59 22.7213 196.889 22.432C197.197 22.1333 197.561 21.914 197.981 21.774C198.41 21.6247 198.872 21.55 199.367 21.55C200.02 21.55 200.599 21.6713 201.103 21.914C201.607 22.1567 202.003 22.502 202.293 22.95C202.582 23.3887 202.727 23.9113 202.727 24.518C202.727 25.1433 202.573 25.6893 202.265 26.156C201.957 26.6227 201.541 26.982 201.019 27.234C200.496 27.486 199.908 27.612 199.255 27.612ZM199.199 26.478C199.628 26.478 200.001 26.3987 200.319 26.24C200.645 26.0813 200.902 25.862 201.089 25.582C201.275 25.2927 201.369 24.9567 201.369 24.574C201.369 23.9953 201.168 23.538 200.767 23.202C200.365 22.8567 199.819 22.684 199.129 22.684C198.681 22.684 198.289 22.768 197.953 22.936C197.617 23.104 197.351 23.3327 197.155 23.622C196.968 23.902 196.875 24.224 196.875 24.588C196.875 24.924 196.963 25.2367 197.141 25.526C197.318 25.806 197.579 26.0347 197.925 26.212C198.27 26.3893 198.695 26.478 199.199 26.478ZM205.378 27.5L209.536 18.288L209.9 18.918H204.076L204.776 18.232V20.668H203.432V17.7H210.824V18.652L206.862 27.5H205.378Z" fill="#636C79"/>
<defs>
<clipPath id="clip0_903_2763">
<rect width="24" height="24" fill="white" transform="translate(0 10)"/>
</clipPath>
</defs>
</svg>
