<svg width="187" height="31" viewBox="0 0 187 31" fill="none" xmlns="http://www.w3.org/2000/svg">
<path fill-rule="evenodd" clip-rule="evenodd" d="M14.952 21.8427H23.0031V22.521H15.4264C15.2674 22.3055 15.1081 22.0793 14.952 21.8427ZM14.1487 20.486H23.0031V21.1644H14.5305C14.4004 20.9453 14.2733 20.7192 14.1487 20.486ZM13.4966 19.1274H23.0031V19.8059H13.8064C13.7005 19.5867 13.5971 19.3606 13.4966 19.1274ZM9.84322 19.1274H11.7733C11.8607 19.3537 11.9535 19.5796 12.0519 19.8059H10.3521L11.5028 20.486H12.3541C12.4574 20.7157 12.5661 20.9435 12.6693 21.1644H12.6532L12.6774 21.1783C12.8679 21.5781 13.0539 21.9583 13.218 22.302C11.3704 21.5256 9.47474 20.9821 8.26063 20.7523C8.83321 20.1704 9.37132 19.6341 9.84322 19.1274ZM12.961 17.7708H23.0031V18.4491H13.2157C13.1281 18.2283 13.0431 18.0021 12.961 17.7708ZM10.9939 17.7708H11.3279C11.3809 17.9898 11.4497 18.216 11.5267 18.4491H10.4558C10.6546 18.2176 10.8348 17.9916 10.9939 17.7708ZM12.5263 16.4122H23.0031V17.0905H12.733C12.6613 16.8698 12.5925 16.6436 12.5263 16.4122ZM12.1788 15.0554H23.0031V15.7337H12.3434C12.2848 15.5112 12.2319 15.2849 12.1788 15.0554ZM18.4036 24.5581H23.0031V25.2364H19.554L20.7022 25.9166H23.0031V26.5949H21.8526L23.0031 27.2733H0V26.5949V25.9166V25.2364V24.5581V23.8796V23.2013V22.521V21.8427V21.1644V20.486V19.8059V19.1274V18.4491V17.7708V17.0905V16.4122V15.7337V15.0554V14.377V13.6969H23.0031V14.377H1.15063L2.30109 15.0554H12.0519C11.9349 15.2849 11.8209 15.5112 11.7071 15.7337H3.45155L4.60222 16.4122H11.3518C11.2272 16.6418 11.0998 16.8678 10.9649 17.0905H5.75285L6.90079 17.7708H10.53C10.3735 17.9968 10.2091 18.2229 10.0289 18.4491H8.05122L9.20168 19.1274H9.44555C8.97915 19.6305 8.42772 20.1406 7.7517 20.6701L7.31937 20.6193L7.67726 20.7192C7.61909 20.7613 7.55015 20.7927 7.49705 20.84C6.72311 21.6255 3.46234 23.2083 2.79415 23.6781C2.50268 23.8849 3.04859 24.2496 3.4437 24.1514C3.96319 24.0182 5.97812 22.8823 8.17833 20.84C9.70275 21.2485 12.2082 22.3248 14.2229 23.7237C15.4821 25.1873 17.2426 26.1673 19.7795 26.0848C18.613 25.6817 17.1761 24.7035 15.8241 23.0364L16.1025 23.2013H23.0031V23.8796H17.2531L18.4036 24.5581Z" fill="#E53524"/>
<path fill-rule="evenodd" clip-rule="evenodd" d="M45.126 23.1224C45.126 23.4344 44.7761 23.6904 44.3412 23.6904H38.6467C38.395 23.6904 38.1645 23.6308 37.9762 23.5326C37.6873 23.3837 37.5043 23.14 37.5043 22.863C37.5043 22.607 37.6608 22.3809 37.9098 22.2284C38.1116 22.1074 38.3658 22.0356 38.6467 22.0356H45.126V23.1224ZM52.7901 17.3536C52.4297 15.2903 49.9932 13.6969 47.0427 13.6969H31.8946V17.3536H43.9252C44.5879 17.3536 45.126 17.7445 45.126 18.2229V18.882H34.5697C32.563 18.882 30.9322 20.0618 30.9377 21.5167C30.9377 22.5123 30.9403 23.643 30.9403 24.644C30.9403 26.0971 32.5654 27.2733 34.575 27.2733H47.0427C49.4629 27.2733 51.5415 26.1988 52.406 24.6703C52.5809 24.3617 52.7078 24.0339 52.7796 23.6904C52.8193 23.4922 52.8407 23.2854 52.8407 23.0768V17.8934C52.8407 17.7112 52.8248 17.5305 52.7901 17.3536Z" fill="#E53524"/>
<path fill-rule="evenodd" clip-rule="evenodd" d="M109.621 23.1224C109.621 23.4344 109.271 23.6904 108.836 23.6904H103.142C102.89 23.6904 102.659 23.6308 102.471 23.5326C102.182 23.3837 101.996 23.14 101.996 22.863C101.996 22.607 102.153 22.3809 102.405 22.2284C102.606 22.1074 102.861 22.0356 103.142 22.0356H109.621V23.1224ZM117.285 17.3536C116.924 15.2903 114.488 13.6969 111.537 13.6969H96.3892V17.3536H108.42C109.082 17.3536 109.621 17.7445 109.621 18.2229V18.882H99.0643C97.0549 18.882 95.427 20.0618 95.4298 21.5167C95.4298 22.5123 95.4348 23.643 95.4348 24.644C95.4348 26.0971 97.06 27.2733 99.0668 27.2733H111.537C113.958 27.2733 116.034 26.1988 116.898 24.6703C117.076 24.3617 117.203 24.0339 117.274 23.6904C117.314 23.4922 117.335 23.2854 117.335 23.0768V17.8934C117.335 17.7112 117.319 17.5305 117.285 17.3536Z" fill="#E53524"/>
<path d="M93.9743 12.717C93.9743 12.717 91.8587 12.7189 89.9209 12.7204C89.1783 12.7222 88.5765 13.1622 88.5952 13.6986V13.7109H93.9743V17.3501H88.6908V27.2664H80.565V17.3501H78.1288V13.7022H80.5625C80.5625 12.4576 81.2571 11.3286 82.3839 10.5135C83.5107 9.69661 85.0694 9.19366 86.7899 9.19366H93.9743V12.717Z" fill="#2B2A29"/>
<path d="M54.8421 9.23929V27.2646H62.8908V9.23929H54.8421ZM70.9126 21.2644C70.7246 21.0768 70.5548 20.87 70.4143 20.6473C70.2711 20.4247 70.2022 20.2178 70.2022 20.0284C70.2022 19.8918 70.2474 19.7269 70.3401 19.5393C70.4409 19.3483 70.5547 19.1889 70.6979 19.0521L76.3394 13.7004H68.8023L64.5821 18.0442C64.272 18.3721 64.0095 18.691 63.7868 18.989C63.5616 19.2889 63.442 19.6849 63.442 20.1827C63.442 20.4072 63.4979 20.7069 63.6064 21.0768C63.7125 21.445 64.0229 21.8743 64.5449 22.3722L69.6668 27.2646H77.4953L70.9126 21.2644Z" fill="#2B2A29"/>
<path d="M135.496 19.6441V0.914185C151.648 4.31588 165.589 7.69772 181.74 11.1017V27.2734H179.128V12.3561L138.108 3.26888V19.6441H135.496Z" fill="#E53524"/>
<path d="M0 29.0243H184.388V17.9052H127.504L127.504 19.6441H124.903L124.903 16.1782H187V30.7513H0V29.0243Z" fill="#2B2A29"/>
<path d="M124.454 22.4098V23.7056H128.883C129.166 23.7056 129.39 23.6409 129.554 23.5114C129.717 23.3817 129.798 23.2132 129.798 23.0073C129.798 22.8216 129.717 22.6748 129.556 22.5697C129.393 22.4631 129.164 22.4098 128.87 22.4098H124.454ZM122.286 27.2733V21.2782H128.818C129.504 21.2782 130.078 21.3272 130.538 21.4266C130.999 21.5244 131.348 21.6842 131.585 21.9059C131.823 22.1277 131.94 22.4185 131.94 22.7814C131.94 23.2333 131.855 23.5458 131.683 23.7214C131.511 23.8957 131.224 24.0266 130.817 24.113C131.328 24.2254 131.703 24.3765 131.938 24.5695C132.175 24.761 132.293 25.0747 132.293 25.5111C132.293 25.9343 132.184 26.277 131.966 26.5361C131.749 26.7953 131.415 26.984 130.971 27.0991C130.525 27.2157 129.957 27.2733 129.262 27.2733H122.286ZM124.454 24.7682V26.1417H128.805C129.188 26.1417 129.473 26.1202 129.66 26.0784C129.846 26.0367 129.97 25.9661 130.033 25.8682C130.094 25.7703 130.124 25.6291 130.124 25.4434C130.124 25.2721 130.098 25.1396 130.044 25.0475C129.989 24.9553 129.874 24.8862 129.697 24.8388C129.521 24.7912 129.249 24.7682 128.881 24.7682H124.467H124.454ZM135.486 21.2782H137.655V25.0014C137.655 25.4045 137.783 25.6854 138.042 25.8437C138.301 26.002 138.73 26.0812 139.329 26.0812H142.321C142.689 26.0812 142.987 26.0468 143.218 25.9789C143.446 25.9112 143.618 25.7961 143.729 25.6349C143.843 25.4722 143.899 25.2591 143.899 24.9928V21.2782H146.068V25.1396C146.068 25.5413 146.009 25.8768 145.889 26.1461C145.77 26.4153 145.582 26.6326 145.326 26.7982C145.066 26.9652 144.735 27.0848 144.326 27.161C143.917 27.2359 143.418 27.2733 142.826 27.2733H138.841C137.7 27.2733 136.855 27.0991 136.307 26.7507C135.76 26.4023 135.486 25.8652 135.486 25.1396V21.2782ZM151.704 27.2733H149.535V21.2782H151.704V27.2733ZM155.261 27.2733V21.2782H157.429V26.0812H163.036V27.2733H155.261ZM168.432 26.0812H172.336C172.87 26.0812 173.279 26.0468 173.565 25.9761C173.85 25.907 174.046 25.8005 174.153 25.6552C174.259 25.5096 174.312 25.3124 174.312 25.0605V23.4897C174.312 23.1312 174.172 22.8735 173.891 22.7122C173.613 22.5509 173.094 22.4702 172.336 22.4702H168.432V26.0812ZM166.264 21.2782H173.264C173.828 21.2782 174.312 21.3185 174.712 21.3992C175.115 21.4797 175.446 21.6079 175.703 21.7807C175.962 21.955 176.154 22.1781 176.28 22.453C176.408 22.7266 176.474 23.0649 176.48 23.4652V25.0532C176.48 25.5759 176.376 26.0006 176.167 26.3259C175.958 26.6514 175.618 26.8903 175.148 27.043C174.677 27.197 174.055 27.2733 173.277 27.2733H166.264V21.2782Z" fill="#2B2A29"/>
</svg>
