<svg width="28" height="21" viewBox="0 0 28 21" fill="none" xmlns="http://www.w3.org/2000/svg">
<rect x="0.25" y="0.75" width="27.5" height="19.5" rx="1.75" fill="white" stroke="#F5F5F5" stroke-width="0.5"/>
<mask id="mask0_1161_845" style="mask-type:luminance" maskUnits="userSpaceOnUse" x="0" y="0" width="28" height="21">
<rect x="0.25" y="0.75" width="27.5" height="19.5" rx="1.75" fill="white" stroke="white" stroke-width="0.5"/>
</mask>
<g mask="url(#mask0_1161_845)">
<path fill-rule="evenodd" clip-rule="evenodd" d="M0 7.16667H28V0.5H0V7.16667Z" fill="#04AAC8"/>
<path fill-rule="evenodd" clip-rule="evenodd" d="M0 20.5H28V13.8333H0V20.5Z" fill="#23C840"/>
<path fill-rule="evenodd" clip-rule="evenodd" d="M4.66675 5.83333C5.07803 5.83333 5.46031 5.70919 5.77817 5.49633C5.74135 5.49876 5.70419 5.49999 5.66675 5.49999C4.74627 5.49999 4.00008 4.7538 4.00008 3.83333C4.00008 2.91285 4.74627 2.16666 5.66675 2.16666C5.70419 2.16666 5.74135 2.1679 5.77817 2.17033C5.46031 1.95747 5.07803 1.83333 4.66675 1.83333C3.56218 1.83333 2.66675 2.72876 2.66675 3.83333C2.66675 4.9379 3.56218 5.83333 4.66675 5.83333ZM8.00008 5.16666C8.00008 5.53485 7.7016 5.83333 7.33341 5.83333C6.96522 5.83333 6.66675 5.53485 6.66675 5.16666C6.66675 4.79847 6.96522 4.49999 7.33341 4.49999C7.7016 4.49999 8.00008 4.79847 8.00008 5.16666ZM10.0001 3.16666C10.3683 3.16666 10.6667 2.86818 10.6667 2.49999C10.6667 2.13181 10.3683 1.83333 10.0001 1.83333C9.63189 1.83333 9.33341 2.13181 9.33341 2.49999C9.33341 2.86818 9.63189 3.16666 10.0001 3.16666ZM13.3334 2.49999C13.3334 2.86818 13.0349 3.16666 12.6667 3.16666C12.2986 3.16666 12.0001 2.86818 12.0001 2.49999C12.0001 2.13181 12.2986 1.83333 12.6667 1.83333C13.0349 1.83333 13.3334 2.13181 13.3334 2.49999ZM12.6667 5.83333C13.0349 5.83333 13.3334 5.53485 13.3334 5.16666C13.3334 4.79847 13.0349 4.49999 12.6667 4.49999C12.2986 4.49999 12.0001 4.79847 12.0001 5.16666C12.0001 5.53485 12.2986 5.83333 12.6667 5.83333ZM10.6667 5.16666C10.6667 5.53485 10.3683 5.83333 10.0001 5.83333C9.63189 5.83333 9.33341 5.53485 9.33341 5.16666C9.33341 4.79847 9.63189 4.49999 10.0001 4.49999C10.3683 4.49999 10.6667 4.79847 10.6667 5.16666Z" fill="white"/>
</g>
</svg>
